<svg width="36" height="29" viewBox="0 0 36 29" fill="none" xmlns="http://www.w3.org/2000/svg">
<path d="M2.24719 4.85714L0.956055 1M16.0193 25.6857C16.0193 26.2995 15.7473 26.8881 15.263 27.3222C14.7787 27.7562 14.1219 28 13.4371 28C12.7522 28 12.0954 27.7562 11.6111 27.3222C11.1268 26.8881 10.8548 26.2995 10.8548 25.6857M26.3485 25.6857C26.3485 26.2995 26.0764 26.8881 25.5921 27.3222C25.1079 27.7562 24.451 28 23.7662 28C23.0813 28 22.4245 27.7562 21.9402 27.3222C21.456 26.8881 21.1839 26.2995 21.1839 25.6857M2.24719 4.85714H34.9561L29.7915 20.2857H7.41175L2.24719 4.85714Z" stroke="#818181" stroke-width="1.5" stroke-linecap="round" stroke-linejoin="round"/>
</svg>
