<svg width="34" height="29" viewBox="0 0 34 29" fill="none" xmlns="http://www.w3.org/2000/svg">
<path d="M32.956 9.96746C32.9615 12.1901 32.013 14.3283 30.3096 15.9331C26.404 19.5891 22.6151 23.401 18.5655 26.9226C17.6358 27.7171 16.1622 27.6882 15.2742 26.8576L3.60209 15.9346C0.0740444 12.6325 0.0740444 7.30242 3.60209 4.00182C4.43592 3.21169 5.43881 2.58266 6.54994 2.15286C7.66108 1.72306 8.85733 1.50144 10.0662 1.50144C11.275 1.50144 12.4712 1.72306 13.5824 2.15286C14.6935 2.58266 15.6964 3.21169 16.5302 4.00182L16.9558 4.3976L17.3798 4.00182C18.2154 3.21356 19.2185 2.58568 20.3293 2.15579C21.44 1.7259 22.6354 1.50285 23.8439 1.5C26.276 1.5 28.6008 2.40135 30.308 4.00182C32.012 5.60639 32.9611 7.74459 32.956 9.96746V9.96746Z" stroke="#818181" stroke-width="1.5" stroke-linejoin="round"/>
</svg>
