<?xml version="1.0" encoding="UTF-8"?><svg id="Layer_1" xmlns="http://www.w3.org/2000/svg" viewBox="0 0 135.0647 56"><defs><style>.cls-1{fill:#e0b740;}</style></defs><g><path class="cls-1" d="M19.2773,20.1184c.0308,.947,.8143,1.6863,1.7633,1.6639,.9443-.0223,1.6972-.801,1.6862-1.7443-.0111-.9486-.7569-1.6866-1.7134-1.6953-1.0024-.0092-1.7686,.7746-1.7361,1.7757Z"/><path class="cls-1" d="M25.494,36.0362c.9131-.0127,1.7072-.8281,1.7088-1.7547,.0017-.9369-.7833-1.6964-1.7448-1.6881-.9602,.0083-1.6823,.7548-1.6783,1.7349,.004,.9493,.7785,1.721,1.7142,1.7079Z"/><path class="cls-1" d="M18.5728,17.7009c.8,.0258,1.53-.6743,1.5368-1.4739,.0062-.7416-.6715-1.4411-1.4284-1.4745-.7881-.0348-1.5296,.6868-1.5237,1.4826,.0059,.7948,.6292,1.4403,1.4153,1.4657Z"/><path class="cls-1" d="M25.7117,37.3522c-.8694,.0037-1.4881,.6446-1.4529,1.5052,.0335,.8206,.6343,1.37,1.4817,1.3548,.8527-.0153,1.3929-.5757,1.3844-1.4363-.0083-.8343-.5968-1.4272-1.4132-1.4237Z"/><path class="cls-1" d="M35.3985,0H5.6594C2.5338,0,0,2.5338,0,5.6594V50.3405c0,3.1256,2.5338,5.6595,5.6594,5.6595h29.7391c3.1256,0,5.6594-2.5338,5.6594-5.6595V5.6594c0-3.1256-2.5338-5.6594-5.6594-5.6594ZM6.9608,2.8197h27.1363c2.2871,0,4.1411,1.8541,4.1411,4.1411v5.8235c-3.6524,2.9016-7.2882,5.824-10.9314,8.7372-.132,.1056-.2915,.177-.5704,.3432-.1627-1.4938,.0005-2.8275-.308-4.138-1.0441-4.4346-4.3103-7.3105-8.5997-7.5219-4.2746-.2106-8.3672,2.4391-9.5152,6.392-.9628,3.3149-.2166,6.423,1.8324,9.1835,1.5314,2.063,2.5355,4.2539,2.2375,6.9017-.0638,.5665-.183,.9875-.6637,1.3688-2.9792,2.3636-5.9479,4.7406-8.9001,7.1375V6.9608c0-2.2871,1.8541-4.1411,4.1411-4.1411Zm4.892,21.6157c-1.8738-2.5918-2.6554-5.4862-.9011-8.4757,1.5641-2.6653,4.0495-3.8597,7.108-3.6017,2.8471,.2401,4.7693,1.8437,5.8234,4.4885,.4737,1.1886,.707,2.4214,.6281,3.693-.2294,3.6987,.9873,6.8369,3.5642,9.4917,1.7757,1.8294,2.7742,3.9931,2.7414,6.5931-.0292,2.3184-.8952,4.2241-2.8002,5.5515-2.2563,1.5722-4.7937,2.4319-7.5528,2.0033-3.7682-.5853-6.2779-4.0665-6.2263-8.3122,.0798-.8222,.1393-1.6469,.2429-2.4661,.4265-3.3713-.6636-6.2491-2.6276-8.9655Zm22.2443,28.745H6.9608c-2.2871,0-4.1411-1.8541-4.1411-4.1412v-4.3075c.1465-.128,.3238-.2728,.5337-.4432,2.7129-2.2018,5.4355-4.3916,8.157-6.5827,.1347-.1085,.2978-.182,.5786-.3503,.4094,2.3462,1.233,4.3633,2.747,6.0376,2.6913,2.9763,6.0795,3.543,9.7998,2.6054,4.0691-1.0255,7.2493-3.1475,8.1382-7.5464,.6377-3.1556-.145-6.0482-2.1201-8.6281-.9834-1.2846-2.1402-2.4344-2.9549-3.8537-.3456-.6022-.3454-.993,.2378-1.4561,3.4455-2.7364,6.8857-5.4801,10.3015-8.2532V49.0392c0,2.2871-1.8541,4.1412-4.1411,4.1412Z"/></g><path class="cls-1" d="M83.5828,0h-29.7391c-3.1256,0-5.6594,2.5338-5.6594,5.6594V50.3405c0,3.1256,2.5338,5.6595,5.6594,5.6595h29.7391c3.1256,0,5.6594-2.5338,5.6594-5.6595V5.6594c0-3.1256-2.5338-5.6594-5.6594-5.6594Zm-28.4377,2.8197h27.1363c2.2871,0,4.1411,1.8541,4.1411,4.1411v5.6427c-3.7571,2.9734-7.5935,5.8539-11.2085,8.9981-1.382,1.202-.7514,.0211-1.2575-.0391-.5892-.0701-.0844-.6065,.0887-.8417,1.1922-1.6205,.7586-3.7162,.6443-5.6098-.0649-1.0764-.9255-1.5578-2.1507-1.3821-.7259,.1041-1.2459-.1331-1.9396-.4464-1.1916-.5381-1.2651-1.1831-1.2618-2.1872,.0016-.4761-.4063-.748-.9033-.7495-.5467-.0017-.9103,.282-.9522,.8269-.0461,.598-.0105,1.2022-.0105,2.06-1.9059-2.1823-1.703-4.863,.2273-6.5578,.5018-.4406,.8709-.3782,1.2905,.0378,.841,.8337,1.4534,1.7805,1.52,3.0046,.0117,.2142,.0315,.4319,.0832,.6391,.1317,.5277,.5013,.811,1.0287,.7567,.5344-.055,.78-.4206,.8352-.9626,.2163-2.1213-1.5017-5.0069-3.4735-5.7917-.6246-.2486-1.1792-.1042-1.7383,.2439-2.7898,1.7368-3.8526,5.2316-2.4768,8.2178,.1342,.2914,.2823,.5765,.457,.9315-.1867,.0227-.3159,.0636-.4387,.0495-2.1626-.2475-2.6636,.2032-2.6936,2.3278-.0245,1.7396,.0006,3.4599,.9359,5.0143,.1853,.3079,.1444,.5079-.1686,.7061-.659,.4174-.7493,1.0852-.7649,1.7958-.0419,1.9151-.071,3.8279,1.0111,5.5307,.2171,.3417,.0103,.4248-.2047,.5637-.4872,.3148-.841,.7855-.7739,1.3394,.1105,.9109,.9121,.3883-1.0173,1.8605-3.3737,2.6976-6.7452,5.398-10.106,8.1116V6.9608c0-2.2871,1.8541-4.1411,4.1411-4.1411Zm14.2569,40.8747h.0104c0-.503-.0336-1.0087,.0072-1.5084,.077-.943,.4526-1.7338,1.3137-2.2243,1.5264-.8696,1.928-.6103,1.9931,1.1092,.0748,1.9791-.588,3.5079-2.3813,4.47-.6237,.3347-1.0239,.327-.9494-.5535,.0362-.4281,.0063-.8618,.0063-1.293Zm1.4323-6.379c-.3755,.2595-.7961,.6676-1.2557,.416-.3748-.2052-.1364-.7217-.1708-1.0982-.0292-.3203-.006-.6452-.006-.9681l-.0381-.0025c.0446-.642,.0183-1.2987,.1489-1.9228,.2502-1.1956,1.4753-2.1456,2.6489-2.1689,.2849-.0057,.4527,.0487,.5444,.3633,.5451,1.8697-.2741,4.2774-1.8715,5.3812Zm-.2236-7.7857c-.3276,.1929-.7088,.5498-1.0708,.3293-.3117-.1899-.1101-.6622-.133-1.0082-.0236-.3569-.0052-.7166-.0052-1.1699,.0394-.5825-.0766-1.2667,.1057-1.9382,.3047-1.1218,1.5814-2.0935,2.7289-2.0926,.2507,.0002,.379,.0494,.4647,.3075,.6394,1.9261-.3204,4.5302-2.0902,5.5721Zm-.0223-7.8956c-1.0415,.5976-1.1797,.5206-1.1863-.6639-.002-.3592-.0003-.7184-.0003-1.1655,.0357-.6614-.0812-1.4183,.1744-2.1558,.3597-1.038,1.4385-1.8582,2.5289-1.8893,.2514-.0072,.4671-.0394,.5895,.298,.6669,1.8385-.352,4.5701-2.1062,5.5765Zm-3.1478,22.053c0,.3233,.0328,.6509-.0086,.9689-.0475,.3639,.2335,.877-.2256,1.0581-.37,.1459-.7452-.1827-1.076-.3909-1.6785-1.0564-2.5298-3.4314-1.9973-5.4347,.1293-.4864,.4408-.3821,.7479-.3449,1.4954,.181,2.4638,1.2185,2.5502,2.7426,.0264,.4656,.0041,.9339,.0041,1.4009h.0053Zm-.2091-5.9531c-.5245,.252-.9949-.251-1.4195-.5698-1.4329-1.0761-2.2114-3.5985-1.669-5.2638,.133-.4085,.3947-.3368,.6776-.3025,1.5558,.1886,2.5407,1.241,2.612,2.8075,.0212,.4655,.0033,.9328,.0033,1.3992h.0047c0,.2153,.0217,.4332-.0044,.6453-.0544,.4416,.2405,1.0703-.2047,1.2842Zm.2091-17.7918c0,.2874,.0202,.5765-.0049,.8616-.0335,.3805,.196,.8918-.1538,1.1116-.4088,.2569-.8129-.1499-1.1656-.3649-1.6622-1.0133-2.5339-3.489-1.9784-5.4378,.1382-.485,.4555-.3681,.7586-.33,1.4302,.1797,2.4191,1.2084,2.5286,2.6515,.0379,.4999,.006,1.0052,.006,1.508h.0095Zm-.1678,9.9063c-.4387,.2373-.9261-.23-1.3349-.5027-1.5189-1.013-1.8693-2.5176-1.8181-4.2265,.0489-1.6335,.3742-1.8539,1.8491-1.0672,.8885,.4739,1.3983,1.2241,1.4545,2.2383,.0297,.5361,.0052,1.0751,.0052,1.6128h.0118c0,.2151,.0183,.4321-.0038,.6449-.0465,.4482,.23,1.0873-.164,1.3004Zm15.0086,23.3318h-27.1363c-2.2871,0-4.1411-1.8541-4.1411-4.1412v-4.5339c3.5237-2.7768,7.0076-5.6038,10.5182-8.3973,.6375-.5073,.7419-.7081,.8914-.282,.2027,.578,1.2955,1.1143,.3678,1.9158-.2543,.2197-.4447,.4666-.5604,.7761-1.184,3.1691,.5903,7.6697,3.7494,8.8321,1.3784,.5072,1.6212,1.1882,1.4954,2.3962-.0593,.5689-.0274,1.1518,.0114,1.7251,.036,.5329,.352,.8829,.898,.8997,.5962,.0184,.9649-.3284,.9899-.9155,.0399-.9339,.0371-1.8709,.0161-2.8057-.012-.5319,.1145-.7965,.7102-.9748,2.6373-.7893,4.2026-2.5838,4.5541-5.3154,.1413-1.0983,.0766-2.2243,.0839-3.3378,.0024-.3666-.0588-.8684-.3893-.9752-1.2552-.4054-.5126-1.1098-.1952-1.7776,.8219-1.7291,.6173-3.5844,.5439-5.412-.0105-.2618-.1331-.7029-.3656-.7521-1.2864-.2721-.6397-.9809-.251-1.6214,.3572-.5884,.6854-1.277,.5778-1.9471-.1873-1.1661-.0909-.9372,1.0563-1.8588,3.5667-2.8656,7.1521-5.7081,10.7163-8.5766V49.0392c0,2.2871-1.8541,4.1412-4.1411,4.1412Z"/><path class="cls-1" d="M129.4052,0h-29.7391c-3.1256,0-5.6594,2.5338-5.6594,5.6594V50.3405c0,3.1256,2.5338,5.6595,5.6594,5.6595h29.7391c3.1256,0,5.6595-2.5338,5.6595-5.6595V5.6594c0-3.1256-2.5338-5.6594-5.6595-5.6594Zm-28.4377,2.8197h27.1363c2.2871,0,4.1412,1.8541,4.1412,4.1411v5.7621c-3.1058,2.4171-6.1649,4.8946-9.2162,7.3801-.5852,.4767-.881,.5511-1.247-.2217-.8006-1.6905-1.7031-3.3328-2.53-5.0114-.3787-.7689-.5629-1.5265,.278-2.2078,.4184-.339,.4194-3.0785,.1007-3.5514-.276-.4097-.6918-.468-1.1427-.466-1.4078,.0063-2.8155,.0023-4.2233,.0023-1.3717,.0004-2.7434,.0066-4.115-.002-.7996-.005-1.2685,.3487-1.1718,1.1697,.1319,1.1206-.4251,2.3209,.6187,3.3599,.4009,.3991,.1299,1.2259-.1864,1.8354-1.0773,2.0753-2.1249,4.166-3.1951,6.2451-.7229,1.4044-1.0641,2.8873-1.0527,4.4669,.0185,2.5906-.014,5.1817,.0177,7.7721,.0083,.6747-.196,1.1203-.7393,1.5486-2.5523,2.012-5.0933,4.0387-7.6141,6.0898V6.9608c0-2.2871,1.8541-4.1411,4.1411-4.1411Zm6.1399,22.6761c-.0002-1.405,.4898-2.6671,1.1074-3.8992,.2094-.4178,.4397-.5093,.8368-.2371,1.4915,1.0227,2.9567,.95,4.4025-.1156,.6367-.4693,1.2833-.3886,1.9019,.0583,1.3813,.9977,2.7879,1.075,4.209,.0989,.4824-.3313,.7158-.206,.9825,.2995,.6685,1.2669,1.0483,2.5834,1.0408,4.0222-.0161,3.0913-.0049,6.1827-.0049,9.2741,.0003,3.2352-.0222,6.4706,.0142,9.7053,.0107,.9554-.2863,1.35-1.3024,1.3391-3.9661-.0426-7.9332-.0405-11.8994-.0017-1.0135,.0099-1.3056-.3949-1.3017-1.3485,.0259-6.3983,.0142-12.7968,.0133-19.1952Zm4.5633-11.9217c-.04-.4917,.327-.5668,.7267-.5625,.6484,.0069,1.2968,.0019,1.9452,.0019,.2521-.0014,.5043-.0014,.7564-.0014,1.6675,0,1.5951,.0175,1.978,1.5948,.3053,1.2577,1.1378,2.3142,1.6361,3.503,.1766,.4214,.8729,.8693,.2078,1.4003-.6367,.5083-1.3398,.8832-2.1739,.3827-.2776-.1665-.5431-.3547-.8285-.5062-1.1076-.5879-2.2064-.5539-3.2863,.0795-.3098,.1817-.596,.4184-.9253,.549-.7795,.3092-1.4231-.0575-1.9608-.56-.526-.4915,.0604-.9009,.2287-1.3138,.6132-1.5043,1.8416-2.775,1.6958-4.5673Zm16.4331,39.6062h-27.1363c-2.2871,0-4.1411-1.8541-4.1411-4.1412v-4.439c2.5271-1.9539,4.9987-3.9791,7.498-5.9689,.2073-.165,.4201-.5183,.7158-.2994,.1391,.103,.1206,.4581,.1217,.6992,.0087,1.978-.0029,3.9561,.0077,5.9341,.0107,1.998,.9938,2.9831,3.0041,2.9883,4.1129,.0106,8.2258,.0094,12.3386,.001,2.0529-.0042,3.0116-.9844,3.0159-3.0695,.0067-3.2727,.0017-6.5455,.0017-9.8182h-.0037c0-3.3087,.1454-6.6261-.0627-9.9224-.111-1.7587-.3761-1.6382,1.4164-3.0752,2.4497-1.9639,4.9186-3.9045,7.365-5.8728V49.0392c0,2.2871-1.8541,4.1412-4.1412,4.1412Z"/></svg>