<svg width="31" height="29" viewBox="0 0 31 29" fill="none" xmlns="http://www.w3.org/2000/svg">
<path d="M15.364 1.65625C7.40649 1.65625 0.956055 7.40644 0.956055 14.5001C0.956055 21.5938 7.40649 27.3439 15.364 27.3439C23.3215 27.3439 29.7719 21.5938 29.7719 14.5001C29.7719 7.40644 23.3215 1.65625 15.364 1.65625Z" stroke="#818181" stroke-width="1.5" stroke-linecap="round" stroke-linejoin="round"/>
<path d="M4.22803 22.6507C4.22803 22.6507 7.43956 18.9954 15.3639 18.9954C23.2883 18.9954 26.5013 22.6507 26.5013 22.6507M15.3639 14.5C16.5103 14.5 17.6097 14.0941 18.4203 13.3714C19.2309 12.6488 19.6863 11.6688 19.6863 10.6469C19.6863 9.62494 19.2309 8.64487 18.4203 7.92226C17.6097 7.19966 16.5103 6.7937 15.3639 6.7937C14.2176 6.7937 13.1181 7.19966 12.3075 7.92226C11.4969 8.64487 11.0415 9.62494 11.0415 10.6469C11.0415 11.6688 11.4969 12.6488 12.3075 13.3714C13.1181 14.0941 14.2176 14.5 15.3639 14.5V14.5Z" stroke="#818181" stroke-width="1.5" stroke-linecap="round" stroke-linejoin="round"/>
</svg>
