<?xml version="1.0" encoding="UTF-8"?>
<svg id="Layer_1" data-name="Layer 1" xmlns="http://www.w3.org/2000/svg" viewBox="0 0 216 172.14">
  <defs>
    <style>
      .cls-1 {
        fill: #ca5310;
      }

      .cls-2 {
        fill: #8f250c;
      }
    </style>
  </defs>
  <g>
    <g>
      <path class="cls-2" d="M86.12,64.64c.62,0,1.04,.48,.97,.97l-1.04,10.5c-.07,.55-.62,.97-1.11,.97h-10.29v34.27c0,.48-.41,.97-.97,.97h-12.23c-.55,0-1.04-.48-1.04-.97v-34.27h-11.47c-.48,0-.97-.41-.97-.97v-10.43c0-.55,.48-1.04,.97-1.04h37.17Z"/>
      <path class="cls-2" d="M104.36,63.03c0,4.08-3.04,6.84-7.6,6.84s-7.6-2.76-7.6-6.84c0-4.28,3.04-7.12,7.6-7.12s7.6,2.83,7.6,7.12Zm-1.45,11.28c.55,0,1.04,.48,1.04,.97v35.99c0,.55-.48,1.04-1.04,1.04h-12.16c-.55,0-1.04-.48-1.04-1.04v-35.99c0-.48,.48-.97,1.04-.97h12.16Z"/>
      <path class="cls-2" d="M132.89,107.33c-1.11,2.21-4.42,3.66-8.29,3.66-10.09,0-16.79-7.25-16.79-18.17,0-12.23,6.22-19.48,16.79-19.48,5.32,0,9.53,1.45,11.33,3.94l1.24-1.93c.41-.62,1.04-1.04,1.59-1.04h7.32c.62,0,1.04,.41,1.04,1.04v33.44c0,10.43-9.46,17.41-21.21,17.41-6.84,0-12.92-1.59-16.3-4.35-.41-.35-.55-.83-.41-1.17l3.52-8.57c.21-.48,.62-.69,1.04-.41,2.97,2.42,7.53,3.87,12.16,3.87,4.35,0,6.98-2.28,6.98-6.22v-2Zm0-17.96s-1.04-3.11-4.77-3.11c-3.45,0-5.46,2.42-5.46,6.56s2,6.63,5.46,6.63c3.73,0,4.77-3.11,4.77-3.11v-6.98Z"/>
      <path class="cls-2" d="M186.15,108.43c.14,.48,0,.76-.48,1.04-3.66,2.42-8.98,3.87-14.3,3.87-12.23,0-20.38-8.01-20.38-19.97s8.01-20.03,20.03-20.03,18.24,7.39,18.24,19.97c0,1.04-.07,2.07-.28,3.11-.07,.55-.41,.83-1.04,.83h-22.18s0,4.35,5.8,4.35c3.52,0,7.46-.83,10.57-2.28,.48-.21,.9,.07,1.04,.55l2.97,8.57Zm-10.64-18.45c0-3.04-1.87-5.04-4.63-5.04-3.11,0-5.18,2-5.18,5.04h9.81Z"/>
      <path class="cls-2" d="M215.03,74.31c.55,0,.97,.41,.97,.97v8.98c0,.55-.41,.97-.97,.97h-1.8c-2.63,0-4.97,1.17-5.87,2.9v23.14c0,.55-.48,1.04-1.04,1.04h-12.16c-.55,0-1.04-.48-1.04-1.04v-35.92c0-.48,.48-.97,1.04-.97h7.81c.55,0,.9,.48,1.11,1.04l1.04,3.04c2.07-2.56,5.46-4.14,9.12-4.14h1.8Z"/>
    </g>
    <g>
      <path class="cls-2" d="M99.81,123.43c.62,0,1.04,.48,.97,.97l-1.04,10.5c-.07,.55-.62,.97-1.11,.97h-10.29v34.27c0,.48-.41,.97-.97,.97h-12.23c-.55,0-1.04-.48-1.04-.97v-34.27h-11.47c-.48,0-.97-.41-.97-.97v-10.43c0-.55,.48-1.04,.97-1.04h37.17Z"/>
      <path class="cls-2" d="M137.32,167.23c.14,.48,0,.76-.48,1.04-3.66,2.42-8.98,3.87-14.3,3.87-12.23,0-20.38-8.01-20.38-19.97s8.01-20.03,20.03-20.03,18.24,7.39,18.24,19.97c0,1.04-.07,2.07-.28,3.11-.07,.55-.41,.83-1.04,.83h-22.18s0,4.35,5.8,4.35c3.52,0,7.46-.83,10.57-2.28,.48-.21,.9,.07,1.04,.55l2.97,8.57Zm-10.64-18.45c0-3.04-1.87-5.04-4.63-5.04-3.11,0-5.18,2-5.18,5.04h9.81Z"/>
      <path class="cls-2" d="M146.72,137.39c-.21-.48-.07-.97,.35-1.31,3.94-2.49,9.46-3.94,14.99-3.94,11.95,0,17.48,6.29,17.48,20.03v17.89c0,.55-.48,1.04-1.04,1.04h-8.7c-.55,0-1.11-.48-1.11-1.04l-.48-1.87c-2.28,2.42-6.84,3.94-11.88,3.94-7.94,0-13.2-5.11-13.13-12.71,.07-6.77,5.32-11.26,13.13-11.26,4.01,0,7.6,1.45,8.98,3.66v-2.9c0-2.97-2.14-4.91-5.32-4.91-2.69,0-6.01,.9-8.29,2.21-.35,.21-.76-.07-1.04-.55l-3.94-8.29Zm18.58,21.28c-1.17-1.17-2.35-1.73-3.8-1.73-1.73,0-2.9,.97-2.9,2.49s1.17,2.49,2.9,2.49c1.45,0,2.63-.55,3.8-1.73v-1.52Z"/>
    </g>
  </g>
  <g>
    <path class="cls-1" d="M4.25,80.4c-1.6,1.38-2.67,3.65-3.28,6.29,0,0-4.44-13.45,5.6-20.35,5.79-3.97,14-2.85,19.87,3.76,5.87,6.61,6.49,15.64,1.38,20.17-5.1,4.53-14,2.85-19.87-3.76-1.6-1.8-2.8-3.78-3.62-5.8l-.09-.31Z"/>
    <path class="cls-1" d="M19.75,35.45c-2.78,.3-5.66,1.88-8.32,4.15,0,0,5.41-16.75,21.49-16.87,9.27-.07,17.29,6.72,18.62,17.47,1.33,10.76-4.85,20.37-13.8,21.47-8.95,1.1-17.28-6.72-18.61-17.47-.36-2.93-.17-5.78,.49-8.39l.14-.38Z"/>
    <path class="cls-1" d="M65.93,6.85c-2.7-1.31-6.19-1.59-9.85-1.16,0,0,14.03-11.17,28.78-2.21,8.5,5.16,12.14,15.45,7.52,25.33-4.62,9.89-15.48,14.57-24.26,10.46-8.77-4.1-12.14-15.44-7.52-25.33,1.25-2.69,2.98-5,5-6.85l.33-.24Z"/>
    <path class="cls-1" d="M118.14,31.46c-.12-1.64-1.3-4.18-3.53-6.03,0,0,11.03,1.54,15.76,16.34,2.72,8.52,.54,16.89-6.21,19.66-6.75,2.77-14.9-1.55-18.22-9.64-3.32-8.09-.54-16.89,6.2-19.66,1.84-.76,3.78-.98,5.7-.75l.29,.07Z"/>
  </g>
</svg>